<svg width="84" height="103" viewBox="0 0 84 103" fill="none" xmlns="http://www.w3.org/2000/svg">
<path d="M42.0179 0C18.8508 0 0.0693359 18.7989 0.0693359 41.9873C0.0693359 60.0646 25.5601 88.8175 36.7982 100.618C39.6406 103.603 44.3954 103.603 47.2378 100.618C58.4786 88.8175 83.9696 60.0646 83.9696 41.9873C83.9692 18.7989 65.1877 0 42.0179 0ZM42.0179 57.9593C33.2051 57.9593 26.0609 50.8083 26.0609 41.9875C26.0609 33.1667 33.2053 26.0157 42.0179 26.0157C50.8305 26.0157 57.9749 33.1667 57.9749 41.9875C57.9749 50.8083 50.8305 57.9593 42.0179 57.9593Z" fill="url(#paint0_linear_0_293)"/>
<defs>
<linearGradient id="paint0_linear_0_293" x1="27.4779" y1="29.6747" x2="69.4906" y2="71.6484" gradientUnits="userSpaceOnUse">
<stop stop-color="#FFC851"/>
<stop offset="1" stop-color="#FFAE00"/>
</linearGradient>
</defs>
</svg>
